<svg version="1.0" xmlns="http://www.w3.org/2000/svg"
 width="500.000000pt" height="500.000000pt" viewBox="0 0 500.000000 500.000000"
 preserveAspectRatio="xMidYMid meet">

<g transform="translate(0.000000,500.000000) scale(0.100000,-0.100000)"
fill="#000000" stroke="none">
<path d="M1615 4596 c-16 -8 -296 -281 -622 -607 -615 -618 -616 -619 -598
-681 4 -13 39 -56 78 -95 73 -75 109 -93 159 -78 30 9 1214 1190 1229 1227 21
50 4 88 -69 160 -94 92 -116 101 -177 74z"/>
<path d="M740 4451 c-81 -25 -158 -101 -186 -183 -21 -64 -15 -158 14 -213 11
-22 42 -64 68 -93 l47 -54 199 199 c109 109 198 203 198 210 0 18 -101 100
-151 122 -46 21 -139 27 -189 12z"/>
<path d="M1573 3448 c-615 -615 -875 -882 -881 -903 -5 -16 -5 -45 0 -63 11
-41 135 -174 184 -197 78 -37 28 -82 967 862 474 476 867 875 874 887 7 11 12
38 13 60 0 35 -8 46 -93 132 -92 94 -93 94 -142 94 l-50 0 -872 -872z"/>
<path d="M1372 3627 c-105 -106 -192 -197 -192 -203 0 -6 14 -23 30 -39 l31
-29 199 199 200 199 -32 33 c-18 18 -34 33 -38 33 -3 0 -92 -87 -198 -193z"/>
<path d="M1962 3037 c-105 -106 -192 -197 -192 -202 0 -13 1052 -1065 1065
-1065 13 0 395 382 395 395 0 13 -1052 1065 -1065 1065 -6 0 -97 -87 -203
-193z"/>
<path d="M4025 2711 c-16 -10 -416 -405 -887 -877 -748 -750 -858 -864 -863
-895 -9 -51 8 -79 108 -176 75 -73 89 -83 121 -83 20 0 49 6 64 14 15 8 415
403 890 878 l862 863 0 53 c0 52 -1 53 -77 133 -108 113 -153 131 -218 90z"/>
<path d="M4360 1859 c-30 -12 -1195 -1173 -1216 -1211 -33 -62 -11 -110 90
-198 65 -57 91 -66 138 -51 24 8 206 184 630 608 518 519 598 603 603 634 9
48 -8 79 -87 157 -68 67 -108 82 -158 61z"/>
<path d="M3557 1442 l-197 -198 35 -34 36 -34 197 197 197 197 -35 35 -35 35
-198 -198z"/>
<path d="M4112 887 c-105 -106 -192 -197 -192 -204 0 -19 91 -94 145 -119 131
-62 294 -3 362 130 37 70 38 179 4 246 -21 40 -107 140 -121 140 -3 0 -92 -87
-198 -193z"/>
</g>
</svg>
