<svg xmlns="http://www.w3.org/2000/svg" viewBox="0 0 500 500">
  <path
    d="M161.5 40.4c-1.6.8-29.6 28.1-62.2 60.7-61.5 61.8-61.6 61.9-59.8 68.1.4 1.3 3.9 5.6 7.8 9.5 7.3 7.5 10.9 9.3 15.9 7.8 3-1 121.4-119 122.9-122.7 2.1-5 .4-8.8-6.9-16-9.4-9.2-11.6-10.1-17.7-7.4zm-87.5 14.5c-8.1 2.5-15.8 10.1-18.6 18.3-2.1 6.4-1.5 15.8 1.4 21.3 1.1 2.2 4.2 6.4 6.8 9.3l4.7 5.4 19.9-19.9c10.9-10.9 19.8-20.3 19.8-21 0-1.8-10.1-10-15.1-12.2-4.6-2.1-13.9-2.7-18.9-1.2zm83.3 100.3c-61.5 61.5-87.5 88.2-88.1 90.3-.5 1.6-.5 4.5 0 6.3 1.1 4.1 13.5 17.4 18.4 19.7 7.8 3.7 2.8 8.2 96.7-86.2 47.4-47.6 86.7-87.5 87.4-88.7.7-1.1 1.2-3.8 1.3-6 0-3.5-.8-4.6-9.3-13.2-9.2-9.4-9.3-9.4-14.2-9.4h-5l-87.2 87.2zm-20.1-17.9c-10.5 10.6-19.2 19.7-19.2 20.3 0 .6 1.4 2.3 3 3.9l3.1 2.9 19.9-19.9 20-19.9-3.2-3.3c-1.8-1.8-3.4-3.3-3.8-3.3-.3 0-9.2 8.7-19.8 19.3zm59 59c-10.5 10.6-19.2 19.7-19.2 20.2 0 1.3 105.2 106.5 106.5 106.5 1.3 0 39.5-38.2 39.5-39.5 0-1.3-105.2-106.5-106.5-106.5-.6 0-9.7 8.7-20.3 19.3zm206.3 32.6c-1.6 1-41.6 40.5-88.7 87.7-74.8 75-85.8 86.4-86.3 89.5-.9 5.1.8 7.9 10.8 17.6 7.5 7.3 8.9 8.3 12.1 8.3 2 0 4.9-.6 6.4-1.4 1.5-.8 41.5-40.3 89-87.8l86.2-86.3v-5.3c0-5.2-.1-5.3-7.7-13.3-10.8-11.3-15.3-13.1-21.8-9zm33.5 85.2c-3 1.2-119.5 117.3-121.6 121.1-3.3 6.2-1.1 11 9 19.8 6.5 5.7 9.1 6.6 13.8 5.1 2.4-.8 20.6-18.4 63-60.8 51.8-51.9 59.8-60.3 60.3-63.4.9-4.8-.8-7.9-8.7-15.7-6.8-6.7-10.8-8.2-15.8-6.1zm-80.3 41.7l-19.7 19.8 3.5 3.4 3.6 3.4 19.7-19.7 19.7-19.7-3.5-3.5-3.5-3.5-19.8 19.8zm55.5 55.5c-10.5 10.6-19.2 19.7-19.2 20.4 0 1.9 9.1 9.4 14.5 11.9 13.1 6.2 29.4.3 36.2-13 3.7-7 3.8-17.9.4-24.6-2.1-4-10.7-14-12.1-14-.3 0-9.2 8.7-19.8 19.3z"
  />
</svg>
